<svg width="3395" height="454" viewBox="0 0 3395 454" fill="none" xmlns="http://www.w3.org/2000/svg">
<path d="M61.183 23.3926C68.1976 23.3926 71.3152 26.5102 71.3152 33.5248V155.111H289.937V33.5248C289.937 26.5102 293.055 23.3926 300.069 23.3926H350.73C357.745 23.3926 361.642 26.5102 361.642 33.5248V340.219C361.642 347.234 357.745 350.351 350.73 350.351H300.069C293.055 350.351 289.937 347.234 289.937 340.219V215.905H71.3152V340.219C71.3152 347.234 68.1976 350.351 61.183 350.351H10.9116C3.897 350.351 0 347.234 0 340.219V33.5248C0 26.5102 3.897 23.3926 10.9116 23.3926H61.183Z" fill="white"/>
<path d="M760.307 93.917C766.932 93.917 769.66 99.3728 766.543 105.608L586.891 422.045C574.81 443.478 553.376 454 512.848 454H480.113C474.657 454 471.539 451.272 471.539 445.427V407.236C471.539 401.78 474.267 398.663 480.113 398.663H507.781C520.252 398.663 527.267 395.545 531.553 387.751L556.884 343.325C541.296 341.767 534.281 336.311 526.877 323.061L400.614 105.218C397.496 98.9831 400.224 93.5273 406.849 93.5273H460.628C466.084 93.5273 469.591 95.4758 471.929 100.152L575.589 280.194C580.655 288.767 582.604 291.105 586.891 291.105L696.786 100.542C699.124 95.8655 702.242 93.917 708.087 93.917H760.307Z" fill="white"/>
<path d="M1020.23 93.9072C1025.69 93.9072 1028.8 96.6351 1028.8 102.481V141.84C1028.8 148.076 1026.08 150.414 1020.23 150.414H895.917C855.778 150.414 844.866 162.494 844.866 201.854V340.588C844.866 347.602 841.749 350.72 834.734 350.72H788.75C781.735 350.72 777.838 347.602 777.838 340.588V188.994C777.838 121.186 805.117 94.2969 888.903 94.2969H1019.84L1020.23 93.9072Z" fill="white"/>
<path d="M1303.94 93.9072C1367.85 93.9072 1385 114.172 1385 170.678V215.104C1385 235.368 1376.42 241.604 1358.5 241.604H1122.34V252.905C1122.34 282.522 1133.25 294.603 1173.78 294.603H1368.63C1374.09 294.603 1377.2 297.331 1377.2 303.176V342.536C1377.2 347.992 1374.48 351.109 1368.63 351.109H1167.16C1082.98 351.109 1056.09 324.61 1056.09 256.802V189.384C1056.09 121.576 1083.37 94.6866 1167.16 94.6866H1303.94V93.9072ZM1121.95 199.906H1311.34C1316.8 199.906 1319.14 197.957 1319.14 192.112V172.627C1319.14 153.531 1312.12 146.127 1290.69 146.127H1173.39C1132.86 146.127 1121.95 157.818 1121.95 187.825V200.295V199.906Z" fill="white"/>
<path d="M1482.42 23.3926C1485.54 23.3926 1487.49 24.9514 1489.04 29.6278L1564.65 280.985C1565.04 283.712 1566.59 284.102 1568.54 284.102H1570.88C1570.88 284.102 1573.61 283.712 1574.78 280.985L1650.38 50.6716C1657.39 29.6278 1668.31 23.3926 1685.06 23.3926H1731.44C1752.09 23.3926 1761.83 30.7969 1768.46 50.6716L1846.01 280.985C1846.79 283.712 1847.96 284.102 1849.91 284.102H1852.63C1852.63 284.102 1855.36 283.712 1856.53 280.985L1930.19 29.6278C1931.74 24.5617 1934.47 23.3926 1937.59 23.3926H2000.72C2005.79 23.3926 2006.18 28.4587 2004.62 34.3042L1914.99 315.278C1906.02 343.337 1896.67 350.741 1879.13 350.741H1824.58C1806.26 350.741 1798.08 342.947 1788.72 315.278L1715.46 93.1489C1715.07 90.8107 1713.9 90.0313 1711.56 90.0313H1709.61C1709.61 90.0313 1706.5 90.8107 1705.72 93.1489L1631.29 315.278C1621.93 342.947 1613.36 350.741 1595.43 350.741H1542.04C1521 350.741 1511.65 344.116 1502.68 315.278L1416.56 34.3042C1414.61 28.069 1415 23.3926 1420.46 23.3926H1483.2H1482.42Z" fill="#3FA0EF"/>
<path d="M2254.81 93.9072C2338.98 93.9072 2365.87 121.186 2365.87 188.604V256.023C2365.87 323.83 2338.59 350.33 2254.81 350.33H2122.7C2038.53 350.33 2011.64 323.83 2011.64 256.023V188.604C2011.64 120.797 2038.91 93.9072 2122.7 93.9072H2254.81ZM2078.27 244.332C2078.27 283.691 2089.19 295.772 2129.33 295.772H2248.57C2289.1 295.772 2300.01 283.691 2300.01 244.332V199.906C2300.01 160.546 2289.1 148.855 2248.57 148.855H2129.33C2089.19 148.855 2078.27 160.546 2078.27 199.906V244.332Z" fill="white"/>
<path d="M2662.04 93.9072C2667.5 93.9072 2670.62 96.6351 2670.62 102.481V141.84C2670.62 148.076 2667.89 150.414 2662.04 150.414H2537.73C2497.59 150.414 2486.68 162.494 2486.68 201.854V340.588C2486.68 347.602 2483.56 350.72 2476.55 350.72H2430.56C2423.55 350.72 2419.65 347.602 2419.65 340.588V188.994C2419.65 121.186 2446.93 94.2969 2530.72 94.2969H2661.65L2662.04 93.9072Z" fill="white"/>
<path d="M2764.15 0C2771.16 0 2774.28 3.1176 2774.28 10.1322V195.24H2860.4C2886.9 195.24 2894.69 192.902 2906.78 175.755L2959 101.712C2962.89 96.256 2966.01 93.9178 2973.02 93.9178H3026.02C3033.04 93.9178 3034.99 100.543 3030.7 106.388L2970.3 189.005C2960.94 201.475 2951.59 211.607 2941.46 219.012C2954.71 226.416 2965.23 236.158 2974.58 249.019L3040.83 338.65C3044.73 343.716 3042.39 350.341 3035.38 350.341H2983.16C2975.36 350.341 2972.25 348.782 2968.74 343.716L2911.84 265.386C2900.54 250.577 2890.8 245.901 2865.08 245.901H2775.06V340.208C2775.06 347.223 2771.94 350.341 2764.92 350.341H2719.33C2712.31 350.341 2708.42 347.223 2708.42 340.208V10.1322C2708.42 3.1176 2712.31 0 2719.33 0H2764.92H2764.15Z" fill="white"/>
<path d="M3375.2 93.9072C3380.65 93.9072 3383.77 96.6351 3383.77 102.481V139.892C3383.77 145.348 3381.04 148.465 3375.2 148.465H3164.37C3145.27 148.465 3138.65 155.87 3138.65 169.509V176.524C3138.65 188.994 3145.27 196.788 3164.37 196.788H3321.81C3374.03 196.788 3394.68 219.391 3394.68 259.53V285.64C3394.68 326.948 3376.37 351.109 3321.42 351.109H3082.14C3076.69 351.109 3073.57 348.382 3073.57 342.536V305.125C3073.57 299.669 3076.3 296.551 3082.14 296.551H3303.88C3322.98 296.551 3329.99 289.927 3329.99 273.949V261.478C3329.99 249.398 3322.98 241.993 3303.88 241.993H3146.83C3094.61 241.993 3073.96 220.17 3073.96 178.862V158.208C3073.96 119.238 3092.27 94.2969 3147.22 94.2969H3375.2V93.9072Z" fill="white"/>
</svg>
